<mxfile host="Electron" agent="Mozilla/5.0 (Windows NT 10.0; Win64; x64) AppleWebKit/537.36 (KHTML, like Gecko) draw.io/24.7.8 Chrome/128.0.6613.36 Electron/32.0.1 Safari/537.36" version="24.7.8">
  <diagram id="Ht1M8jgEwFfnCIfOTk4-" name="Page-1">
    <mxGraphModel dx="600" dy="355" grid="0" gridSize="10" guides="1" tooltips="1" connect="1" arrows="1" fold="1" page="1" pageScale="1" pageWidth="1169" pageHeight="827" math="0" shadow="0">
      <root>
        <mxCell id="0" />
        <mxCell id="1" parent="0" />
        <mxCell id="YiETkS8MIL0oi_vCQvUn-1" value="LocalFileSystemPath" style="rounded=0;whiteSpace=wrap;html=1;" vertex="1" parent="1">
          <mxGeometry x="107" y="89" width="120" height="60" as="geometry" />
        </mxCell>
        <mxCell id="YiETkS8MIL0oi_vCQvUn-2" value="AWSS3FileSystemPath" style="rounded=0;whiteSpace=wrap;html=1;" vertex="1" parent="1">
          <mxGeometry x="288" y="89" width="155" height="60" as="geometry" />
        </mxCell>
        <mxCell id="YiETkS8MIL0oi_vCQvUn-4" value="Extends" style="endArrow=block;endSize=16;endFill=0;html=1;rounded=0;exitX=0.5;exitY=1;exitDx=0;exitDy=0;entryX=0.457;entryY=0.003;entryDx=0;entryDy=0;entryPerimeter=0;" edge="1" parent="1" source="YiETkS8MIL0oi_vCQvUn-1" target="YiETkS8MIL0oi_vCQvUn-6">
          <mxGeometry width="160" relative="1" as="geometry">
            <mxPoint x="416" y="301" as="sourcePoint" />
            <mxPoint x="576" y="301" as="targetPoint" />
          </mxGeometry>
        </mxCell>
        <mxCell id="YiETkS8MIL0oi_vCQvUn-5" value="Extends" style="endArrow=block;endSize=16;endFill=0;html=1;rounded=0;exitX=0.5;exitY=1;exitDx=0;exitDy=0;entryX=0.5;entryY=0;entryDx=0;entryDy=0;" edge="1" parent="1" source="YiETkS8MIL0oi_vCQvUn-2" target="YiETkS8MIL0oi_vCQvUn-6">
          <mxGeometry width="160" relative="1" as="geometry">
            <mxPoint x="417" y="197" as="sourcePoint" />
            <mxPoint x="533" y="259" as="targetPoint" />
          </mxGeometry>
        </mxCell>
        <mxCell id="YiETkS8MIL0oi_vCQvUn-6" value="AbstractFileSystemPath" style="swimlane;fontStyle=0;childLayout=stackLayout;horizontal=1;startSize=26;fillColor=none;horizontalStack=0;resizeParent=1;resizeParentMax=0;resizeLast=0;collapsible=1;marginBottom=0;whiteSpace=wrap;html=1;" vertex="1" parent="1">
          <mxGeometry x="125" y="247" width="286" height="182" as="geometry" />
        </mxCell>
        <mxCell id="YiETkS8MIL0oi_vCQvUn-7" value="_uploadChunkDirectoryPath(): string" style="text;strokeColor=none;fillColor=none;align=left;verticalAlign=top;spacingLeft=4;spacingRight=4;overflow=hidden;rotatable=0;points=[[0,0.5],[1,0.5]];portConstraint=eastwest;whiteSpace=wrap;html=1;" vertex="1" parent="YiETkS8MIL0oi_vCQvUn-6">
          <mxGeometry y="26" width="286" height="26" as="geometry" />
        </mxCell>
        <mxCell id="YiETkS8MIL0oi_vCQvUn-8" value="_uploadVideoDirectoryPath(): string" style="text;strokeColor=none;fillColor=none;align=left;verticalAlign=top;spacingLeft=4;spacingRight=4;overflow=hidden;rotatable=0;points=[[0,0.5],[1,0.5]];portConstraint=eastwest;whiteSpace=wrap;html=1;" vertex="1" parent="YiETkS8MIL0oi_vCQvUn-6">
          <mxGeometry y="52" width="286" height="26" as="geometry" />
        </mxCell>
        <mxCell id="YiETkS8MIL0oi_vCQvUn-9" value="_streamDirectoryPath(): string" style="text;strokeColor=none;fillColor=none;align=left;verticalAlign=top;spacingLeft=4;spacingRight=4;overflow=hidden;rotatable=0;points=[[0,0.5],[1,0.5]];portConstraint=eastwest;whiteSpace=wrap;html=1;" vertex="1" parent="YiETkS8MIL0oi_vCQvUn-6">
          <mxGeometry y="78" width="286" height="26" as="geometry" />
        </mxCell>
        <mxCell id="YiETkS8MIL0oi_vCQvUn-38" value="_uploadVideoFilePath(videoName:string):string" style="text;strokeColor=none;fillColor=none;align=left;verticalAlign=top;spacingLeft=4;spacingRight=4;overflow=hidden;rotatable=0;points=[[0,0.5],[1,0.5]];portConstraint=eastwest;whiteSpace=wrap;html=1;" vertex="1" parent="YiETkS8MIL0oi_vCQvUn-6">
          <mxGeometry y="104" width="286" height="26" as="geometry" />
        </mxCell>
        <mxCell id="YiETkS8MIL0oi_vCQvUn-39" value="_uploadChunkFilePath(chunkName:string): string" style="text;strokeColor=none;fillColor=none;align=left;verticalAlign=top;spacingLeft=4;spacingRight=4;overflow=hidden;rotatable=0;points=[[0,0.5],[1,0.5]];portConstraint=eastwest;whiteSpace=wrap;html=1;" vertex="1" parent="YiETkS8MIL0oi_vCQvUn-6">
          <mxGeometry y="130" width="286" height="26" as="geometry" />
        </mxCell>
        <mxCell id="YiETkS8MIL0oi_vCQvUn-40" value="....." style="text;strokeColor=none;fillColor=none;align=left;verticalAlign=top;spacingLeft=4;spacingRight=4;overflow=hidden;rotatable=0;points=[[0,0.5],[1,0.5]];portConstraint=eastwest;whiteSpace=wrap;html=1;" vertex="1" parent="YiETkS8MIL0oi_vCQvUn-6">
          <mxGeometry y="156" width="286" height="26" as="geometry" />
        </mxCell>
        <mxCell id="YiETkS8MIL0oi_vCQvUn-10" value="LocalFileSystemAction" style="rounded=0;whiteSpace=wrap;html=1;" vertex="1" parent="1">
          <mxGeometry x="620" y="102" width="150" height="60" as="geometry" />
        </mxCell>
        <mxCell id="YiETkS8MIL0oi_vCQvUn-11" value="AWSS3FileSystemAction" style="rounded=0;whiteSpace=wrap;html=1;" vertex="1" parent="1">
          <mxGeometry x="788" y="102" width="155" height="60" as="geometry" />
        </mxCell>
        <mxCell id="YiETkS8MIL0oi_vCQvUn-12" value="Extends" style="endArrow=block;endSize=16;endFill=0;html=1;rounded=0;exitX=0.5;exitY=1;exitDx=0;exitDy=0;entryX=0.468;entryY=0.003;entryDx=0;entryDy=0;entryPerimeter=0;" edge="1" parent="1" source="YiETkS8MIL0oi_vCQvUn-10" target="YiETkS8MIL0oi_vCQvUn-14">
          <mxGeometry width="160" relative="1" as="geometry">
            <mxPoint x="866" y="314" as="sourcePoint" />
            <mxPoint x="1026" y="314" as="targetPoint" />
          </mxGeometry>
        </mxCell>
        <mxCell id="YiETkS8MIL0oi_vCQvUn-13" value="Extends" style="endArrow=block;endSize=16;endFill=0;html=1;rounded=0;exitX=0.5;exitY=1;exitDx=0;exitDy=0;entryX=0.5;entryY=0;entryDx=0;entryDy=0;" edge="1" parent="1" source="YiETkS8MIL0oi_vCQvUn-11" target="YiETkS8MIL0oi_vCQvUn-14">
          <mxGeometry width="160" relative="1" as="geometry">
            <mxPoint x="867" y="210" as="sourcePoint" />
            <mxPoint x="983" y="272" as="targetPoint" />
          </mxGeometry>
        </mxCell>
        <mxCell id="YiETkS8MIL0oi_vCQvUn-14" value="AbstractFileSystemAction" style="swimlane;fontStyle=0;childLayout=stackLayout;horizontal=1;startSize=26;fillColor=none;horizontalStack=0;resizeParent=1;resizeParentMax=0;resizeLast=0;collapsible=1;marginBottom=0;whiteSpace=wrap;html=1;" vertex="1" parent="1">
          <mxGeometry x="616" y="259" width="327" height="156" as="geometry" />
        </mxCell>
        <mxCell id="YiETkS8MIL0oi_vCQvUn-15" value="readFromDir(path, options): string[]" style="text;strokeColor=none;fillColor=none;align=left;verticalAlign=top;spacingLeft=4;spacingRight=4;overflow=hidden;rotatable=0;points=[[0,0.5],[1,0.5]];portConstraint=eastwest;whiteSpace=wrap;html=1;" vertex="1" parent="YiETkS8MIL0oi_vCQvUn-14">
          <mxGeometry y="26" width="327" height="26" as="geometry" />
        </mxCell>
        <mxCell id="YiETkS8MIL0oi_vCQvUn-16" value="createDir(path, options): void" style="text;strokeColor=none;fillColor=none;align=left;verticalAlign=top;spacingLeft=4;spacingRight=4;overflow=hidden;rotatable=0;points=[[0,0.5],[1,0.5]];portConstraint=eastwest;whiteSpace=wrap;html=1;" vertex="1" parent="YiETkS8MIL0oi_vCQvUn-14">
          <mxGeometry y="52" width="327" height="26" as="geometry" />
        </mxCell>
        <mxCell id="YiETkS8MIL0oi_vCQvUn-17" value="createWriteStream(path, option): Writable" style="text;strokeColor=none;fillColor=none;align=left;verticalAlign=top;spacingLeft=4;spacingRight=4;overflow=hidden;rotatable=0;points=[[0,0.5],[1,0.5]];portConstraint=eastwest;whiteSpace=wrap;html=1;" vertex="1" parent="YiETkS8MIL0oi_vCQvUn-14">
          <mxGeometry y="78" width="327" height="26" as="geometry" />
        </mxCell>
        <mxCell id="YiETkS8MIL0oi_vCQvUn-41" value="createReadStream(path, option): Readable" style="text;strokeColor=none;fillColor=none;align=left;verticalAlign=top;spacingLeft=4;spacingRight=4;overflow=hidden;rotatable=0;points=[[0,0.5],[1,0.5]];portConstraint=eastwest;whiteSpace=wrap;html=1;" vertex="1" parent="YiETkS8MIL0oi_vCQvUn-14">
          <mxGeometry y="104" width="327" height="26" as="geometry" />
        </mxCell>
        <mxCell id="YiETkS8MIL0oi_vCQvUn-42" value="pipeReadToWrite(readStream, writeStream, options): void" style="text;strokeColor=none;fillColor=none;align=left;verticalAlign=top;spacingLeft=4;spacingRight=4;overflow=hidden;rotatable=0;points=[[0,0.5],[1,0.5]];portConstraint=eastwest;whiteSpace=wrap;html=1;" vertex="1" parent="YiETkS8MIL0oi_vCQvUn-14">
          <mxGeometry y="130" width="327" height="26" as="geometry" />
        </mxCell>
        <mxCell id="YiETkS8MIL0oi_vCQvUn-18" value="AWSS3FileReadStream" style="rounded=0;whiteSpace=wrap;html=1;" vertex="1" parent="1">
          <mxGeometry x="76" y="522" width="151" height="60" as="geometry" />
        </mxCell>
        <mxCell id="YiETkS8MIL0oi_vCQvUn-19" value="AWSS3FileSystemPath" style="rounded=0;whiteSpace=wrap;html=1;" vertex="1" parent="1">
          <mxGeometry x="327.5" y="496" width="155" height="60" as="geometry" />
        </mxCell>
        <mxCell id="YiETkS8MIL0oi_vCQvUn-20" value="Extends" style="endArrow=block;endSize=16;endFill=0;html=1;rounded=0;exitX=0.5;exitY=1;exitDx=0;exitDy=0;entryX=0.463;entryY=-0.012;entryDx=0;entryDy=0;entryPerimeter=0;" edge="1" parent="1" source="YiETkS8MIL0oi_vCQvUn-18" target="YiETkS8MIL0oi_vCQvUn-22">
          <mxGeometry width="160" relative="1" as="geometry">
            <mxPoint x="402" y="734" as="sourcePoint" />
            <mxPoint x="562" y="734" as="targetPoint" />
          </mxGeometry>
        </mxCell>
        <mxCell id="YiETkS8MIL0oi_vCQvUn-21" value="Extends" style="endArrow=block;endSize=16;endFill=0;html=1;rounded=0;exitX=0.5;exitY=1;exitDx=0;exitDy=0;entryX=0.5;entryY=0;entryDx=0;entryDy=0;" edge="1" parent="1" source="YiETkS8MIL0oi_vCQvUn-19" target="YiETkS8MIL0oi_vCQvUn-44">
          <mxGeometry width="160" relative="1" as="geometry">
            <mxPoint x="406.5" y="604" as="sourcePoint" />
            <mxPoint x="366.5" y="645" as="targetPoint" />
          </mxGeometry>
        </mxCell>
        <mxCell id="YiETkS8MIL0oi_vCQvUn-22" value="node:stream::Readable" style="swimlane;fontStyle=0;childLayout=stackLayout;horizontal=1;startSize=26;fillColor=none;horizontalStack=0;resizeParent=1;resizeParentMax=0;resizeLast=0;collapsible=1;marginBottom=0;whiteSpace=wrap;html=1;" vertex="1" parent="1">
          <mxGeometry x="66" y="709" width="184" height="104" as="geometry" />
        </mxCell>
        <mxCell id="YiETkS8MIL0oi_vCQvUn-23" value="_constructor(callback)" style="text;strokeColor=none;fillColor=none;align=left;verticalAlign=top;spacingLeft=4;spacingRight=4;overflow=hidden;rotatable=0;points=[[0,0.5],[1,0.5]];portConstraint=eastwest;whiteSpace=wrap;html=1;" vertex="1" parent="YiETkS8MIL0oi_vCQvUn-22">
          <mxGeometry y="26" width="184" height="26" as="geometry" />
        </mxCell>
        <mxCell id="YiETkS8MIL0oi_vCQvUn-24" value="_read(size: number): void" style="text;strokeColor=none;fillColor=none;align=left;verticalAlign=top;spacingLeft=4;spacingRight=4;overflow=hidden;rotatable=0;points=[[0,0.5],[1,0.5]];portConstraint=eastwest;whiteSpace=wrap;html=1;" vertex="1" parent="YiETkS8MIL0oi_vCQvUn-22">
          <mxGeometry y="52" width="184" height="26" as="geometry" />
        </mxCell>
        <mxCell id="YiETkS8MIL0oi_vCQvUn-25" value="_destroy(error, callback) :void" style="text;strokeColor=none;fillColor=none;align=left;verticalAlign=top;spacingLeft=4;spacingRight=4;overflow=hidden;rotatable=0;points=[[0,0.5],[1,0.5]];portConstraint=eastwest;whiteSpace=wrap;html=1;" vertex="1" parent="YiETkS8MIL0oi_vCQvUn-22">
          <mxGeometry y="78" width="184" height="26" as="geometry" />
        </mxCell>
        <mxCell id="YiETkS8MIL0oi_vCQvUn-26" value="multer.diskStorage" style="rounded=0;whiteSpace=wrap;html=1;" vertex="1" parent="1">
          <mxGeometry x="655" y="516" width="120" height="60" as="geometry" />
        </mxCell>
        <mxCell id="YiETkS8MIL0oi_vCQvUn-27" value="AWSS3CustomStorageEngine" style="rounded=0;whiteSpace=wrap;html=1;" vertex="1" parent="1">
          <mxGeometry x="886" y="516" width="190" height="60" as="geometry" />
        </mxCell>
        <mxCell id="YiETkS8MIL0oi_vCQvUn-28" value="Extends" style="endArrow=block;endSize=16;endFill=0;html=1;rounded=0;exitX=0.5;exitY=1;exitDx=0;exitDy=0;entryX=0.481;entryY=0.031;entryDx=0;entryDy=0;entryPerimeter=0;" edge="1" parent="1" source="YiETkS8MIL0oi_vCQvUn-26" target="YiETkS8MIL0oi_vCQvUn-30">
          <mxGeometry width="160" relative="1" as="geometry">
            <mxPoint x="964" y="728" as="sourcePoint" />
            <mxPoint x="1124" y="728" as="targetPoint" />
          </mxGeometry>
        </mxCell>
        <mxCell id="YiETkS8MIL0oi_vCQvUn-29" value="Extends" style="endArrow=block;endSize=16;endFill=0;html=1;rounded=0;exitX=0.5;exitY=1;exitDx=0;exitDy=0;entryX=0.5;entryY=0;entryDx=0;entryDy=0;" edge="1" parent="1" source="YiETkS8MIL0oi_vCQvUn-27" target="YiETkS8MIL0oi_vCQvUn-30">
          <mxGeometry width="160" relative="1" as="geometry">
            <mxPoint x="965" y="624" as="sourcePoint" />
            <mxPoint x="1081" y="686" as="targetPoint" />
          </mxGeometry>
        </mxCell>
        <mxCell id="YiETkS8MIL0oi_vCQvUn-30" value="multer.storageEngine" style="swimlane;fontStyle=0;childLayout=stackLayout;horizontal=1;startSize=26;fillColor=none;horizontalStack=0;resizeParent=1;resizeParentMax=0;resizeLast=0;collapsible=1;marginBottom=0;whiteSpace=wrap;html=1;" vertex="1" parent="1">
          <mxGeometry x="747" y="685" width="184" height="78" as="geometry" />
        </mxCell>
        <mxCell id="YiETkS8MIL0oi_vCQvUn-32" value="_handleFile(req, file, callback)" style="text;strokeColor=none;fillColor=none;align=left;verticalAlign=top;spacingLeft=4;spacingRight=4;overflow=hidden;rotatable=0;points=[[0,0.5],[1,0.5]];portConstraint=eastwest;whiteSpace=wrap;html=1;" vertex="1" parent="YiETkS8MIL0oi_vCQvUn-30">
          <mxGeometry y="26" width="184" height="26" as="geometry" />
        </mxCell>
        <mxCell id="YiETkS8MIL0oi_vCQvUn-33" value="_removeFile(req, file, callback)" style="text;strokeColor=none;fillColor=none;align=left;verticalAlign=top;spacingLeft=4;spacingRight=4;overflow=hidden;rotatable=0;points=[[0,0.5],[1,0.5]];portConstraint=eastwest;whiteSpace=wrap;html=1;" vertex="1" parent="YiETkS8MIL0oi_vCQvUn-30">
          <mxGeometry y="52" width="184" height="26" as="geometry" />
        </mxCell>
        <mxCell id="YiETkS8MIL0oi_vCQvUn-44" value="AbstractFileSystemPath" style="swimlane;fontStyle=0;childLayout=stackLayout;horizontal=1;startSize=26;fillColor=none;horizontalStack=0;resizeParent=1;resizeParentMax=0;resizeLast=0;collapsible=1;marginBottom=0;whiteSpace=wrap;html=1;" vertex="1" parent="1">
          <mxGeometry x="309" y="679" width="192" height="130" as="geometry" />
        </mxCell>
        <mxCell id="YiETkS8MIL0oi_vCQvUn-45" value="_constructor(callback)" style="text;strokeColor=none;fillColor=none;align=left;verticalAlign=top;spacingLeft=4;spacingRight=4;overflow=hidden;rotatable=0;points=[[0,0.5],[1,0.5]];portConstraint=eastwest;whiteSpace=wrap;html=1;" vertex="1" parent="YiETkS8MIL0oi_vCQvUn-44">
          <mxGeometry y="26" width="192" height="26" as="geometry" />
        </mxCell>
        <mxCell id="YiETkS8MIL0oi_vCQvUn-46" value="_write(chunk, encoding, callback)" style="text;strokeColor=none;fillColor=none;align=left;verticalAlign=top;spacingLeft=4;spacingRight=4;overflow=hidden;rotatable=0;points=[[0,0.5],[1,0.5]];portConstraint=eastwest;whiteSpace=wrap;html=1;" vertex="1" parent="YiETkS8MIL0oi_vCQvUn-44">
          <mxGeometry y="52" width="192" height="26" as="geometry" />
        </mxCell>
        <mxCell id="YiETkS8MIL0oi_vCQvUn-47" value="_final(callback)" style="text;strokeColor=none;fillColor=none;align=left;verticalAlign=top;spacingLeft=4;spacingRight=4;overflow=hidden;rotatable=0;points=[[0,0.5],[1,0.5]];portConstraint=eastwest;whiteSpace=wrap;html=1;" vertex="1" parent="YiETkS8MIL0oi_vCQvUn-44">
          <mxGeometry y="78" width="192" height="26" as="geometry" />
        </mxCell>
        <mxCell id="YiETkS8MIL0oi_vCQvUn-48" value="_destroy(error,callback)" style="text;strokeColor=none;fillColor=none;align=left;verticalAlign=top;spacingLeft=4;spacingRight=4;overflow=hidden;rotatable=0;points=[[0,0.5],[1,0.5]];portConstraint=eastwest;whiteSpace=wrap;html=1;" vertex="1" parent="YiETkS8MIL0oi_vCQvUn-44">
          <mxGeometry y="104" width="192" height="26" as="geometry" />
        </mxCell>
      </root>
    </mxGraphModel>
  </diagram>
</mxfile>
